<mxfile host="app.diagrams.net" modified="2024-03-25T04:43:21.740Z" agent="Mozilla/5.0 (Windows NT 10.0; Win64; x64) AppleWebKit/537.36 (KHTML, like Gecko) Chrome/121.0.0.0 Safari/537.36 OPR/107.0.0.0" etag="4ItZFZWUCba3OyICs1f4" version="24.0.7" type="google">
  <diagram name="Page-1" id="z4bVFm13iegyjinyYMxW">
    <mxGraphModel grid="1" page="1" gridSize="10" guides="1" tooltips="1" connect="1" arrows="1" fold="1" pageScale="1" pageWidth="850" pageHeight="1100" math="0" shadow="0">
      <root>
        <mxCell id="0" />
        <mxCell id="1" parent="0" />
        <mxCell id="IHgsMJMbLqcfS5eTaFf3-1" value="solutionsArchitectureDwinzo2.0" style="text;strokeColor=none;fillColor=none;html=1;fontSize=24;fontStyle=1;verticalAlign=middle;align=center;" vertex="1" parent="1">
          <mxGeometry x="-850" y="10" width="370" height="20" as="geometry" />
        </mxCell>
        <mxCell id="IHgsMJMbLqcfS5eTaFf3-27" value="1) LOGIN SERVICE - AUTHENTICATION &amp;amp; AUTHORIZATION in Microservices architecture with the help of API Gateway &lt;span style=&quot;font-weight: normal;&quot;&gt;&amp;nbsp;&lt;/span&gt;" style="swimlane;horizontal=0;whiteSpace=wrap;html=1;startSize=30;" vertex="1" parent="1">
          <mxGeometry x="-365" y="510" width="1580" height="870" as="geometry" />
        </mxCell>
        <mxCell id="IHgsMJMbLqcfS5eTaFf3-115" value="USER" style="sketch=0;outlineConnect=0;fontColor=#232F3E;gradientColor=none;fillColor=#232F3D;strokeColor=none;dashed=0;verticalLabelPosition=bottom;verticalAlign=top;align=center;html=1;fontSize=12;fontStyle=0;aspect=fixed;pointerEvents=1;shape=mxgraph.aws4.user;" vertex="1" parent="IHgsMJMbLqcfS5eTaFf3-27">
          <mxGeometry x="60" y="171" width="58" height="58" as="geometry" />
        </mxCell>
        <mxCell id="IHgsMJMbLqcfS5eTaFf3-154" style="edgeStyle=orthogonalEdgeStyle;rounded=0;orthogonalLoop=1;jettySize=auto;html=1;exitX=1;exitY=0.5;exitDx=0;exitDy=0;strokeColor=#9999FF;entryX=0;entryY=0.5;entryDx=0;entryDy=0;" edge="1" parent="IHgsMJMbLqcfS5eTaFf3-27" source="IHgsMJMbLqcfS5eTaFf3-35" target="IHgsMJMbLqcfS5eTaFf3-155">
          <mxGeometry relative="1" as="geometry">
            <mxPoint x="1139.64" y="99.94736842105272" as="targetPoint" />
            <Array as="points">
              <mxPoint x="677" y="290" />
              <mxPoint x="931" y="290" />
              <mxPoint x="931" y="171" />
            </Array>
          </mxGeometry>
        </mxCell>
        <mxCell id="IHgsMJMbLqcfS5eTaFf3-156" value="Valid JWT - Access to App&lt;div&gt;(as an admin or user)&lt;/div&gt;" style="edgeLabel;html=1;align=center;verticalAlign=middle;resizable=0;points=[];" connectable="0" vertex="1" parent="IHgsMJMbLqcfS5eTaFf3-154">
          <mxGeometry x="0.04" y="-4" relative="1" as="geometry">
            <mxPoint as="offset" />
          </mxGeometry>
        </mxCell>
        <mxCell id="IHgsMJMbLqcfS5eTaFf3-35" value="API Gateway&lt;div&gt;(amassdor)&lt;/div&gt;" style="sketch=0;html=1;verticalAlign=top;labelPosition=center;verticalLabelPosition=bottom;align=center;spacingTop=-6;fontSize=11;fontStyle=1;fontColor=#999999;shape=image;aspect=fixed;imageAspect=0;image=data:image/svg+xml,PHN2ZyB4bWxucz0iaHR0cDovL3d3dy53My5vcmcvMjAwMC9zdmciIGhlaWdodD0iMzY3LjgxODMyODg1NzQyMTkiIHZpZXdCb3g9IjcuMTA1NDI3MzU3NjAxMDAyZS0xNSAwIDM2Ni40MTAxODY3Njc1NzgxIDM2Ny44MTgzMjg4NTc0MjE5IiBwcmVzZXJ2ZUFzcGVjdFJhdGlvPSJ4TWlkWU1pZCBtZWV0IiB3aWR0aD0iMzY2LjQxMDE5Njc2NzU3OTEiIHZlcnNpb249IjEuMSIgaWQ9InN2Zzk4NyIgem9vbUFuZFBhbj0ibWFnbmlmeSI+JiN4YTsgIDxwYXRoIGQ9Im0gNDguMjUxOTYsMTExLjUzOTA2IGMgLTcuNjE4NjQsMmUtNCAtMTMuNzk0NzIsNi4xNzYyOCAtMTMuNzk0OTMsMTMuNzk0OTIgMi4xZS00LDcuNjE4NjQgNi4xNzYyOSwxMy43OTQ3MiAxMy43OTQ5MywxMy43OTQ5MiBoIDE0NS4xNDY5MiB2IC0yNy41ODk4NCB6IG0gMjM4LjYwODU5LDU3LjQ1MTE3IGggNjUuNzU0NjkgYyA3LjYxODY0LC0yLjFlLTQgMTMuNzk0NzEsLTYuMTc2MjggMTMuNzk0OTIsLTEzLjc5NDkyIC0yLjFlLTQsLTcuNjE4NjQgLTYuMTc2MjgsLTEzLjc5NDcxIC0xMy43OTQ5MiwtMTMuNzk0OTIgSCAyODQuODUwNiBaIE0gMTMuNzk0OTIsMTcwLjk3NDYxIEMgNi4xNzYyODAxLDE3MC45NzQ4MiAyLjEwMDkxOWUtNCwxNzcuMTUwODkgOS4xODk5MjFlLTgsMTg0Ljc2OTUzIC04LjY5OTA4MWUtNCwxOTIuMzg4OTMgNi4xNzU1MjAxLDE5OC41NjYxOSAxMy43OTQ5MiwxOTguNTY2NCBIIDE5My4zOTg4OCBWIDE3MC45NzQ2MSBaIE0gMjg0LjMwNzgsMjI3LjU2NjQgaCA2OC4zMDc0NCBjIDcuNjE4NjQsLTIuMWUtNCAxMy43OTQ3MSwtNi4xNzYyOCAxMy43OTQ5MiwtMTMuNzk0OTIgLTIuMWUtNCwtNy42MTg2NCAtNi4xNzYyOCwtMTMuNzk0NzEgLTEzLjc5NDkyLC0xMy43OTQ5MiBoIC02NS45MjE3OCB6IG0gLTIzNi4wNTU4NCwxLjY5NzI3IGMgLTcuNjE4NjQsMmUtNCAtMTMuNzk0NzIsNi4xNzYyOCAtMTMuNzk0OTMsMTMuNzk0OTIgMi4xZS00LDcuNjE4NjQgNi4xNzYyOSwxMy43OTQ3MiAxMy43OTQ5MywxMy43OTQ5MiBIIDE5My4zOTg4OCBWIDIyOS4yNjM2NyBaIE0gMTg5LjUyMTQ5LDAgYyAtMjQuNTc0MTEsMCAtNDkuMTY3MzcsMjAuMDU1MDcgLTU5LjQzNzUsNzUuMzczMDQgaCAzMC41ODAwNyBjIDQuNjE2MzMsLTI0LjE2MjA2IDE1LjM0ODk2LC00Ny41MjE0OCAyNy44NTM1MiwtNDcuNTIxNDggMTIuMTU4OCwwIDM5LjQ1ODk4LDU3LjQ1MDQ0IDM5LjQ1ODk4LDE2MC40MTQwNiAwLDY5LjkxNTEzIC0xOS41NzgwOSwxNTIuMTE1MjQgLTQxLjE3MTg3LDE1Mi4xMTUyMyAtMTUuMjY4ODEsMmUtNSAtMjEuMjE2NjgsLTI4LjMzMzU2IC0yNS40NDMzNiwtNDYuNzE4NzQgbCAtMzAuNDE0MDYsLTAuMDY4NCBjIDQuMjIwNzQsMjAuNTQwODcgMTYuOTA3NjgsNzQuMjI0NiA1Ny43MTI4OSw3NC4yMjQ2IDUzLjQzNjcyLDAgNjguOTEyMTEsLTExMS45OTMwNSA2OC45MTIxMSwtMTgwLjQ2Mjg5IEMgMjU3LjU3MjI3LDkzLjgwMDc2IDIzNi41ODM0LDAgMTg5LjUyMTQ5LDAgWiIgc3R5bGU9ImNvbG9yOiMwMDAwMDA7b3BhY2l0eToxO2ZpbGw6IzQyODVmNDtmaWxsLW9wYWNpdHk6MTtzdHJva2UtbGluZWNhcDpyb3VuZDstaW5rc2NhcGUtc3Ryb2tlOm5vbmUiLz4mI3hhOzwvc3ZnPg==;" vertex="1" parent="IHgsMJMbLqcfS5eTaFf3-27">
          <mxGeometry x="635" y="280" width="42" height="42" as="geometry" />
        </mxCell>
        <mxCell id="IHgsMJMbLqcfS5eTaFf3-100" value="" style="strokeWidth=1;shadow=0;dashed=0;align=center;html=1;shape=mxgraph.mockup.containers.browserWindow;rSize=0;strokeColor=#666666;strokeColor2=#008cff;strokeColor3=#c4c4c4;mainText=,;recursiveResize=0;" vertex="1" parent="IHgsMJMbLqcfS5eTaFf3-27">
          <mxGeometry x="194.64" y="70" width="290" height="240" as="geometry" />
        </mxCell>
        <mxCell id="IHgsMJMbLqcfS5eTaFf3-101" value="Page 1" style="strokeWidth=1;shadow=0;dashed=0;align=center;html=1;shape=mxgraph.mockup.containers.anchor;fontSize=17;fontColor=#666666;align=left;whiteSpace=wrap;" vertex="1" parent="IHgsMJMbLqcfS5eTaFf3-100">
          <mxGeometry x="60" y="12" width="110" height="26" as="geometry" />
        </mxCell>
        <mxCell id="IHgsMJMbLqcfS5eTaFf3-102" value="https://www.draw.io" style="strokeWidth=1;shadow=0;dashed=0;align=center;html=1;shape=mxgraph.mockup.containers.anchor;rSize=0;fontSize=17;fontColor=#666666;align=left;" vertex="1" parent="IHgsMJMbLqcfS5eTaFf3-100">
          <mxGeometry x="130" y="60" width="250" height="26" as="geometry" />
        </mxCell>
        <mxCell id="IHgsMJMbLqcfS5eTaFf3-103" value="" style="shape=table;startSize=0;container=1;collapsible=0;childLayout=tableLayout;" vertex="1" parent="IHgsMJMbLqcfS5eTaFf3-100">
          <mxGeometry x="10" y="122" width="270" height="110" as="geometry" />
        </mxCell>
        <mxCell id="IHgsMJMbLqcfS5eTaFf3-104" value="" style="shape=tableRow;horizontal=0;startSize=0;swimlaneHead=0;swimlaneBody=0;strokeColor=inherit;top=0;left=0;bottom=0;right=0;collapsible=0;dropTarget=0;fillColor=none;points=[[0,0.5],[1,0.5]];portConstraint=eastwest;" vertex="1" parent="IHgsMJMbLqcfS5eTaFf3-103">
          <mxGeometry width="270" height="55" as="geometry" />
        </mxCell>
        <mxCell id="IHgsMJMbLqcfS5eTaFf3-105" value="&lt;b&gt;Login&lt;/b&gt;" style="shape=partialRectangle;html=1;whiteSpace=wrap;connectable=0;strokeColor=inherit;overflow=hidden;fillColor=none;top=0;left=0;bottom=0;right=0;pointerEvents=1;" vertex="1" parent="IHgsMJMbLqcfS5eTaFf3-104">
          <mxGeometry width="270" height="55" as="geometry">
            <mxRectangle width="270" height="55" as="alternateBounds" />
          </mxGeometry>
        </mxCell>
        <mxCell id="IHgsMJMbLqcfS5eTaFf3-106" value="" style="shape=tableRow;horizontal=0;startSize=0;swimlaneHead=0;swimlaneBody=0;strokeColor=inherit;top=0;left=0;bottom=0;right=0;collapsible=0;dropTarget=0;fillColor=none;points=[[0,0.5],[1,0.5]];portConstraint=eastwest;" vertex="1" parent="IHgsMJMbLqcfS5eTaFf3-103">
          <mxGeometry y="55" width="270" height="55" as="geometry" />
        </mxCell>
        <mxCell id="IHgsMJMbLqcfS5eTaFf3-107" value="&lt;b&gt;Signup&lt;/b&gt;" style="shape=partialRectangle;html=1;whiteSpace=wrap;connectable=0;strokeColor=inherit;overflow=hidden;fillColor=none;top=0;left=0;bottom=0;right=0;pointerEvents=1;" vertex="1" parent="IHgsMJMbLqcfS5eTaFf3-106">
          <mxGeometry width="270" height="55" as="geometry">
            <mxRectangle width="270" height="55" as="alternateBounds" />
          </mxGeometry>
        </mxCell>
        <mxCell id="IHgsMJMbLqcfS5eTaFf3-108" value="" style="group" connectable="0" vertex="1" parent="IHgsMJMbLqcfS5eTaFf3-100">
          <mxGeometry x="10" y="122" width="270" height="110" as="geometry" />
        </mxCell>
        <mxCell id="IHgsMJMbLqcfS5eTaFf3-109" value="" style="group" connectable="0" vertex="1" parent="IHgsMJMbLqcfS5eTaFf3-108">
          <mxGeometry width="270" height="110" as="geometry" />
        </mxCell>
        <mxCell id="IHgsMJMbLqcfS5eTaFf3-110" value="with Third Party Auth" style="rounded=1;whiteSpace=wrap;html=1;" vertex="1" parent="IHgsMJMbLqcfS5eTaFf3-109">
          <mxGeometry x="67.5008695652174" y="46.75" width="135" height="16.5" as="geometry" />
        </mxCell>
        <mxCell id="IHgsMJMbLqcfS5eTaFf3-111" value="" style="edgeStyle=orthogonalEdgeStyle;rounded=0;orthogonalLoop=1;jettySize=auto;html=1;entryX=0.5;entryY=0;entryDx=0;entryDy=0;strokeColor=#007FFF;" edge="1" parent="IHgsMJMbLqcfS5eTaFf3-27" source="IHgsMJMbLqcfS5eTaFf3-161" target="IHgsMJMbLqcfS5eTaFf3-35">
          <mxGeometry relative="1" as="geometry">
            <mxPoint x="802.14" y="97.42857142857156" as="targetPoint" />
            <Array as="points">
              <mxPoint x="605" y="250" />
              <mxPoint x="605" y="209" />
              <mxPoint x="716" y="209" />
            </Array>
          </mxGeometry>
        </mxCell>
        <mxCell id="IHgsMJMbLqcfS5eTaFf3-173" value="&lt;b&gt;User&lt;/b&gt;&lt;div&gt;&lt;b&gt;Login request&amp;nbsp;&lt;/b&gt;&lt;/div&gt;&lt;div&gt;&lt;b&gt;with&amp;nbsp;&lt;/b&gt;&lt;/div&gt;&lt;div&gt;&lt;b&gt;Credentials&lt;/b&gt;&lt;/div&gt;" style="edgeLabel;html=1;align=center;verticalAlign=middle;resizable=0;points=[];" connectable="0" vertex="1" parent="IHgsMJMbLqcfS5eTaFf3-111">
          <mxGeometry x="-0.2235" y="3" relative="1" as="geometry">
            <mxPoint x="1" as="offset" />
          </mxGeometry>
        </mxCell>
        <mxCell id="IHgsMJMbLqcfS5eTaFf3-37" value="" style="dashed=0;outlineConnect=0;html=1;align=center;labelPosition=center;verticalLabelPosition=bottom;verticalAlign=top;shape=mxgraph.weblogos.mongodb" vertex="1" parent="IHgsMJMbLqcfS5eTaFf3-27">
          <mxGeometry x="937.5775" y="675.2219445436153" width="23.75" height="63.593359514459145" as="geometry" />
        </mxCell>
        <mxCell id="IHgsMJMbLqcfS5eTaFf3-119" value="" style="shape=image;html=1;verticalAlign=top;verticalLabelPosition=bottom;labelBackgroundColor=#ffffff;imageAspect=0;aspect=fixed;image=https://cdn3.iconfinder.com/data/icons/drifting/Me.png" vertex="1" parent="IHgsMJMbLqcfS5eTaFf3-27">
          <mxGeometry x="779.64" y="690.7669879804832" width="58.35089618531019" height="58.35089618531019" as="geometry" />
        </mxCell>
        <mxCell id="IHgsMJMbLqcfS5eTaFf3-138" value="" style="edgeStyle=orthogonalEdgeStyle;rounded=0;orthogonalLoop=1;jettySize=auto;html=1;strokeColor=#00CC00;" edge="1" parent="IHgsMJMbLqcfS5eTaFf3-27">
          <mxGeometry relative="1" as="geometry">
            <mxPoint x="933.7576470588239" y="480" as="sourcePoint" />
            <mxPoint x="1296.1105882352942" y="480" as="targetPoint" />
            <Array as="points">
              <mxPoint x="1169.64" y="480" />
              <mxPoint x="1169.64" y="480" />
            </Array>
          </mxGeometry>
        </mxCell>
        <mxCell id="IHgsMJMbLqcfS5eTaFf3-139" value="&lt;div&gt;&lt;b&gt;User Creds&lt;/b&gt;&lt;/div&gt;&lt;div&gt;&lt;b&gt;+&lt;/b&gt;&lt;/div&gt;&lt;div&gt;&lt;b&gt;User&#39;s Role&lt;/b&gt;&lt;/div&gt;&lt;div&gt;&lt;b&gt;+&lt;/b&gt;&lt;/div&gt;&lt;div&gt;&lt;b&gt;Token&lt;/b&gt;&lt;/div&gt;" style="edgeLabel;html=1;align=center;verticalAlign=middle;resizable=0;points=[];" connectable="0" vertex="1" parent="IHgsMJMbLqcfS5eTaFf3-138">
          <mxGeometry x="-0.1263" y="-1" relative="1" as="geometry">
            <mxPoint x="90" as="offset" />
          </mxGeometry>
        </mxCell>
        <object placeholders="1" c4Type="Dwinzo Auth MS" c4Container="MS" c4Technology="Dwinzo User Authenticator Microservice" c4Description="Authenticates Users Login Request &#xa;to redirect as Admin or User" label="&lt;font style=&quot;font-size: 16px&quot;&gt;&lt;b&gt;%c4Type%&lt;/b&gt;&lt;/font&gt;&lt;div&gt;[%c4Container%:&amp;nbsp;%c4Technology%]&lt;/div&gt;&lt;br&gt;&lt;div&gt;&lt;font style=&quot;font-size: 11px&quot;&gt;&lt;font color=&quot;#E6E6E6&quot;&gt;%c4Description%&lt;/font&gt;&lt;/div&gt;" id="IHgsMJMbLqcfS5eTaFf3-125">
          <mxCell style="shape=hexagon;size=40;perimeter=hexagonPerimeter2;whiteSpace=wrap;html=1;fixedSize=1;rounded=1;labelBackgroundColor=none;fillColor=#23A2D9;fontSize=12;fontColor=#ffffff;align=center;strokeColor=#0E7DAD;metaEdit=1;points=[[0.5,0,0],[1,0.25,0],[1,0.5,0],[1,0.75,0],[0.5,1,0],[0,0.75,0],[0,0.5,0],[0,0.25,0]];resizable=0;arcSize=0;" vertex="1" parent="IHgsMJMbLqcfS5eTaFf3-27">
            <mxGeometry x="759.64" y="370" width="200" height="170" as="geometry" />
          </mxCell>
        </object>
        <mxCell id="IHgsMJMbLqcfS5eTaFf3-128" style="edgeStyle=orthogonalEdgeStyle;rounded=0;orthogonalLoop=1;jettySize=auto;html=1;entryX=0;entryY=0.15;entryDx=0;entryDy=0;entryPerimeter=0;strokeColor=#007FFF;" edge="1" parent="IHgsMJMbLqcfS5eTaFf3-27" source="IHgsMJMbLqcfS5eTaFf3-125" target="IHgsMJMbLqcfS5eTaFf3-117">
          <mxGeometry relative="1" as="geometry" />
        </mxCell>
        <mxCell id="IHgsMJMbLqcfS5eTaFf3-129" value="&lt;b&gt;Queries&lt;/b&gt;&lt;div&gt;&lt;b&gt;the data&lt;/b&gt;&lt;/div&gt;" style="edgeLabel;html=1;align=center;verticalAlign=middle;resizable=0;points=[];" connectable="0" vertex="1" parent="IHgsMJMbLqcfS5eTaFf3-128">
          <mxGeometry x="0.2887" y="-5" relative="1" as="geometry">
            <mxPoint as="offset" />
          </mxGeometry>
        </mxCell>
        <mxCell id="IHgsMJMbLqcfS5eTaFf3-133" style="edgeStyle=orthogonalEdgeStyle;rounded=0;orthogonalLoop=1;jettySize=auto;html=1;strokeColor=#00CC00;entryX=0.695;entryY=1.002;entryDx=0;entryDy=0;entryPerimeter=0;exitX=1;exitY=0.15;exitDx=0;exitDy=0;exitPerimeter=0;" edge="1" parent="IHgsMJMbLqcfS5eTaFf3-27" source="IHgsMJMbLqcfS5eTaFf3-117" target="IHgsMJMbLqcfS5eTaFf3-125">
          <mxGeometry relative="1" as="geometry">
            <mxPoint x="869.64" y="674" as="sourcePoint" />
            <mxPoint x="785.8399999999998" y="470.0200000000002" as="targetPoint" />
            <Array as="points">
              <mxPoint x="969.64" y="674" />
              <mxPoint x="1079.64" y="674" />
              <mxPoint x="1079.64" y="570" />
              <mxPoint x="898.64" y="570" />
            </Array>
          </mxGeometry>
        </mxCell>
        <mxCell id="IHgsMJMbLqcfS5eTaFf3-140" value="&lt;b&gt;Validates query to the user&lt;/b&gt;&lt;div&gt;&lt;b&gt;+&lt;/b&gt;&lt;/div&gt;&lt;div&gt;&lt;b&gt;User&#39;s Role&lt;/b&gt;&lt;/div&gt;&lt;div&gt;&lt;b&gt;+&lt;br&gt;&lt;/b&gt;&lt;div&gt;&lt;b&gt;Access Token of the request&lt;/b&gt;&lt;/div&gt;&lt;/div&gt;" style="edgeLabel;html=1;align=center;verticalAlign=middle;resizable=0;points=[];" connectable="0" vertex="1" parent="IHgsMJMbLqcfS5eTaFf3-133">
          <mxGeometry x="0.0373" relative="1" as="geometry">
            <mxPoint y="41" as="offset" />
          </mxGeometry>
        </mxCell>
        <object placeholders="1" c4Type="Dwinzo RBAC MS" c4Container="MS" c4Technology="Dwinzo RBAC Microservice" c4Description="IAM based on Role Based Access Control to the logging in users&#xa;to redirect as Admin or User" label="&lt;font style=&quot;font-size: 16px&quot;&gt;&lt;b&gt;%c4Type%&lt;/b&gt;&lt;/font&gt;&lt;div&gt;[%c4Container%:&amp;nbsp;%c4Technology%]&lt;/div&gt;&lt;br&gt;&lt;div&gt;&lt;font style=&quot;font-size: 11px&quot;&gt;&lt;font color=&quot;#E6E6E6&quot;&gt;%c4Description%&lt;/font&gt;&lt;/div&gt;" id="IHgsMJMbLqcfS5eTaFf3-137">
          <mxCell style="shape=hexagon;size=40;perimeter=hexagonPerimeter2;whiteSpace=wrap;html=1;fixedSize=1;rounded=1;labelBackgroundColor=none;fillColor=#23A2D9;fontSize=12;fontColor=#ffffff;align=center;strokeColor=#0E7DAD;metaEdit=1;points=[[0.5,0,0],[1,0.25,0],[1,0.5,0],[1,0.75,0],[0.5,1,0],[0,0.75,0],[0,0.5,0],[0,0.25,0]];resizable=0;arcSize=0;" vertex="1" parent="IHgsMJMbLqcfS5eTaFf3-27">
            <mxGeometry x="1279.64" y="350" width="200" height="170" as="geometry" />
          </mxCell>
        </object>
        <mxCell id="IHgsMJMbLqcfS5eTaFf3-141" style="edgeStyle=orthogonalEdgeStyle;rounded=0;orthogonalLoop=1;jettySize=auto;html=1;strokeColor=#00FF00;" edge="1" parent="IHgsMJMbLqcfS5eTaFf3-27" source="IHgsMJMbLqcfS5eTaFf3-137" target="IHgsMJMbLqcfS5eTaFf3-125">
          <mxGeometry relative="1" as="geometry">
            <Array as="points">
              <mxPoint x="1239.64" y="410" />
              <mxPoint x="1239.64" y="410" />
            </Array>
          </mxGeometry>
        </mxCell>
        <mxCell id="IHgsMJMbLqcfS5eTaFf3-144" value="&lt;b&gt;Permission&lt;/b&gt;&lt;div&gt;&lt;b&gt;access&lt;br&gt;&lt;/b&gt;&lt;div&gt;&lt;b&gt;for&amp;nbsp;&lt;/b&gt;&lt;/div&gt;&lt;div&gt;&lt;b&gt;(either Admin or User)&lt;/b&gt;&lt;/div&gt;&lt;/div&gt;" style="edgeLabel;html=1;align=center;verticalAlign=middle;resizable=0;points=[];" connectable="0" vertex="1" parent="IHgsMJMbLqcfS5eTaFf3-141">
          <mxGeometry x="-0.0515" y="2" relative="1" as="geometry">
            <mxPoint x="-75" y="-2" as="offset" />
          </mxGeometry>
        </mxCell>
        <mxCell id="IHgsMJMbLqcfS5eTaFf3-152" style="edgeStyle=orthogonalEdgeStyle;rounded=0;orthogonalLoop=1;jettySize=auto;html=1;entryX=0.976;entryY=1.452;entryDx=0;entryDy=0;entryPerimeter=0;strokeColor=#00FF00;" edge="1" parent="IHgsMJMbLqcfS5eTaFf3-27" source="IHgsMJMbLqcfS5eTaFf3-125" target="IHgsMJMbLqcfS5eTaFf3-35">
          <mxGeometry relative="1" as="geometry">
            <Array as="points">
              <mxPoint x="890" y="341" />
            </Array>
          </mxGeometry>
        </mxCell>
        <mxCell id="IHgsMJMbLqcfS5eTaFf3-153" value="JWT + Payload&lt;div&gt;(Headers:&amp;nbsp;&lt;/div&gt;&lt;div&gt;Hash + Credentials (Payload)&amp;nbsp;&lt;/div&gt;&lt;div&gt;+Signature)&lt;/div&gt;" style="edgeLabel;html=1;align=center;verticalAlign=middle;resizable=0;points=[];" connectable="0" vertex="1" parent="IHgsMJMbLqcfS5eTaFf3-152">
          <mxGeometry x="0.0779" y="1" relative="1" as="geometry">
            <mxPoint x="2" y="-12" as="offset" />
          </mxGeometry>
        </mxCell>
        <mxCell id="IHgsMJMbLqcfS5eTaFf3-155" value="APP ENVIRONEMNT (Pods)" style="swimlane;whiteSpace=wrap;html=1;startSize=29;" vertex="1" parent="IHgsMJMbLqcfS5eTaFf3-27">
          <mxGeometry x="1184.64" y="71" width="295.36" height="200" as="geometry" />
        </mxCell>
        <mxCell id="IHgsMJMbLqcfS5eTaFf3-157" value="Application&lt;div&gt;(Business&lt;/div&gt;" style="sketch=0;outlineConnect=0;fontColor=#232F3E;gradientColor=none;strokeColor=#232F3E;fillColor=#ffffff;dashed=0;verticalLabelPosition=bottom;verticalAlign=top;align=center;html=1;fontSize=12;fontStyle=0;aspect=fixed;shape=mxgraph.aws4.resourceIcon;resIcon=mxgraph.aws4.application;" vertex="1" parent="IHgsMJMbLqcfS5eTaFf3-155">
          <mxGeometry x="195.36" y="70" width="60" height="60" as="geometry" />
        </mxCell>
        <mxCell id="IHgsMJMbLqcfS5eTaFf3-263" value="" style="endArrow=none;html=1;rounded=0;" edge="1" parent="IHgsMJMbLqcfS5eTaFf3-155">
          <mxGeometry width="50" height="50" relative="1" as="geometry">
            <mxPoint x="147.4799999999999" y="199" as="sourcePoint" />
            <mxPoint x="147.4799999999999" y="29" as="targetPoint" />
          </mxGeometry>
        </mxCell>
        <mxCell id="IHgsMJMbLqcfS5eTaFf3-264" value="Application&lt;div&gt;(admin)&lt;/div&gt;" style="sketch=0;outlineConnect=0;fontColor=#232F3E;gradientColor=none;strokeColor=#232F3E;fillColor=#ffffff;dashed=0;verticalLabelPosition=bottom;verticalAlign=top;align=center;html=1;fontSize=12;fontStyle=0;aspect=fixed;shape=mxgraph.aws4.resourceIcon;resIcon=mxgraph.aws4.application;" vertex="1" parent="IHgsMJMbLqcfS5eTaFf3-155">
          <mxGeometry x="50.3599999999999" y="70" width="60" height="60" as="geometry" />
        </mxCell>
        <mxCell id="IHgsMJMbLqcfS5eTaFf3-162" value="" style="edgeStyle=orthogonalEdgeStyle;rounded=0;orthogonalLoop=1;jettySize=auto;html=1;entryX=0.5;entryY=0;entryDx=0;entryDy=0;strokeColor=#007FFF;exitX=1.017;exitY=0.375;exitDx=0;exitDy=0;exitPerimeter=0;" edge="1" parent="IHgsMJMbLqcfS5eTaFf3-27" source="IHgsMJMbLqcfS5eTaFf3-100" target="IHgsMJMbLqcfS5eTaFf3-161">
          <mxGeometry relative="1" as="geometry">
            <mxPoint x="370.64" y="687.95" as="targetPoint" />
            <mxPoint x="514.64" y="187.99761904761908" as="sourcePoint" />
            <Array as="points">
              <mxPoint x="519.64" y="180" />
              <mxPoint x="519.64" y="270" />
              <mxPoint x="547.64" y="270" />
            </Array>
          </mxGeometry>
        </mxCell>
        <mxCell id="IHgsMJMbLqcfS5eTaFf3-161" value="" style="outlineConnect=0;dashed=0;verticalLabelPosition=bottom;verticalAlign=top;align=center;html=1;shape=mxgraph.aws3.data_encryption_key;fillColor=#7D7C7C;gradientColor=none;" vertex="1" parent="IHgsMJMbLqcfS5eTaFf3-27">
          <mxGeometry x="534.64" y="242" width="35" height="50" as="geometry" />
        </mxCell>
        <mxCell id="IHgsMJMbLqcfS5eTaFf3-165" value="" style="edgeStyle=orthogonalEdgeStyle;rounded=0;orthogonalLoop=1;jettySize=auto;html=1;strokeColor=#007FFF;" edge="1" parent="IHgsMJMbLqcfS5eTaFf3-27" source="IHgsMJMbLqcfS5eTaFf3-35" target="IHgsMJMbLqcfS5eTaFf3-164">
          <mxGeometry relative="1" as="geometry">
            <mxPoint x="355.64" y="752" as="sourcePoint" />
            <mxPoint x="394.64" y="965" as="targetPoint" />
            <Array as="points" />
          </mxGeometry>
        </mxCell>
        <mxCell id="IHgsMJMbLqcfS5eTaFf3-166" value="&lt;b&gt;Auth Request&lt;/b&gt;" style="edgeLabel;html=1;align=center;verticalAlign=middle;resizable=0;points=[];" connectable="0" vertex="1" parent="IHgsMJMbLqcfS5eTaFf3-165">
          <mxGeometry x="-0.2083" y="2" relative="1" as="geometry">
            <mxPoint as="offset" />
          </mxGeometry>
        </mxCell>
        <mxCell id="IHgsMJMbLqcfS5eTaFf3-164" value="" style="shape=image;html=1;verticalAlign=top;verticalLabelPosition=bottom;labelBackgroundColor=#ffffff;imageAspect=0;aspect=fixed;image=https://cdn2.iconfinder.com/data/icons/css-vol-2/24/lock-unlock-128.png" vertex="1" parent="IHgsMJMbLqcfS5eTaFf3-27">
          <mxGeometry x="624.64" y="435.5" width="39" height="39" as="geometry" />
        </mxCell>
        <mxCell id="IHgsMJMbLqcfS5eTaFf3-167" style="edgeStyle=orthogonalEdgeStyle;rounded=0;orthogonalLoop=1;jettySize=auto;html=1;exitX=1;exitY=0.5;exitDx=0;exitDy=0;entryX=0;entryY=0.5;entryDx=0;entryDy=0;entryPerimeter=0;" edge="1" parent="IHgsMJMbLqcfS5eTaFf3-27" source="IHgsMJMbLqcfS5eTaFf3-164" target="IHgsMJMbLqcfS5eTaFf3-125">
          <mxGeometry relative="1" as="geometry">
            <Array as="points" />
          </mxGeometry>
        </mxCell>
        <mxCell id="IHgsMJMbLqcfS5eTaFf3-168" value="&lt;b&gt;Decrypts&lt;/b&gt;&lt;div&gt;&lt;b&gt;Cipher&lt;/b&gt;&lt;/div&gt;&lt;div&gt;&lt;b&gt;Text&lt;/b&gt;&lt;/div&gt;" style="edgeLabel;html=1;align=center;verticalAlign=middle;resizable=0;points=[];" connectable="0" vertex="1" parent="IHgsMJMbLqcfS5eTaFf3-167">
          <mxGeometry x="0.1981" y="-1" relative="1" as="geometry">
            <mxPoint as="offset" />
          </mxGeometry>
        </mxCell>
        <mxCell id="IHgsMJMbLqcfS5eTaFf3-117" value="&lt;div&gt;&lt;span style=&quot;text-wrap: nowrap;&quot;&gt;&lt;br&gt;&lt;/span&gt;&lt;/div&gt;&lt;div&gt;&lt;span style=&quot;text-wrap: nowrap;&quot;&gt;&lt;br&gt;&lt;/span&gt;&lt;/div&gt;&lt;div&gt;&lt;span style=&quot;text-wrap: nowrap;&quot;&gt;&lt;br&gt;&lt;/span&gt;&lt;/div&gt;&lt;div&gt;&lt;span style=&quot;text-wrap: nowrap;&quot;&gt;&lt;i style=&quot;&quot;&gt;&lt;b&gt;AUTH DB&lt;/b&gt;&lt;/i&gt;&lt;/span&gt;&lt;/div&gt;&lt;div&gt;&lt;span style=&quot;text-wrap: nowrap;&quot;&gt;RDBMS or&lt;/span&gt;&lt;div style=&quot;text-wrap: nowrap;&quot;&gt;NOSQL DB&#39;s to&lt;/div&gt;&lt;div style=&quot;text-wrap: nowrap;&quot;&gt;save creds in&lt;/div&gt;&lt;div style=&quot;text-wrap: nowrap;&quot;&gt;Table or Key-Value&lt;/div&gt;&lt;div style=&quot;text-wrap: nowrap;&quot;&gt;Pair&amp;nbsp;&lt;/div&gt;&lt;div style=&quot;text-wrap: nowrap;&quot;&gt;based to the relevant DB&lt;/div&gt;&lt;/div&gt;" style="strokeWidth=2;html=1;shape=mxgraph.flowchart.database;whiteSpace=wrap;align=center;" vertex="1" parent="IHgsMJMbLqcfS5eTaFf3-27">
          <mxGeometry x="779.64" y="630" width="190" height="190.00000000000009" as="geometry" />
        </mxCell>
        <mxCell id="IHgsMJMbLqcfS5eTaFf3-172" style="edgeStyle=orthogonalEdgeStyle;rounded=0;orthogonalLoop=1;jettySize=auto;html=1;entryX=0.001;entryY=0.547;entryDx=0;entryDy=0;entryPerimeter=0;" edge="1" parent="IHgsMJMbLqcfS5eTaFf3-27" source="IHgsMJMbLqcfS5eTaFf3-115" target="IHgsMJMbLqcfS5eTaFf3-100">
          <mxGeometry relative="1" as="geometry" />
        </mxCell>
        <mxCell id="IHgsMJMbLqcfS5eTaFf3-267" style="edgeStyle=orthogonalEdgeStyle;rounded=0;orthogonalLoop=1;jettySize=auto;html=1;exitX=0.25;exitY=1;exitDx=0;exitDy=0;" edge="1" parent="IHgsMJMbLqcfS5eTaFf3-27" source="IHgsMJMbLqcfS5eTaFf3-155" target="IHgsMJMbLqcfS5eTaFf3-137">
          <mxGeometry relative="1" as="geometry">
            <Array as="points">
              <mxPoint x="1265" y="271" />
              <mxPoint x="1265" y="310" />
              <mxPoint x="1380" y="310" />
            </Array>
          </mxGeometry>
        </mxCell>
        <mxCell id="IHgsMJMbLqcfS5eTaFf3-268" value="Programmatic&lt;div&gt;Access&lt;/div&gt;&lt;div&gt;to change Privileges&lt;/div&gt;" style="edgeLabel;html=1;align=center;verticalAlign=middle;resizable=0;points=[];" connectable="0" vertex="1" parent="IHgsMJMbLqcfS5eTaFf3-267">
          <mxGeometry x="0.2096" y="1" relative="1" as="geometry">
            <mxPoint as="offset" />
          </mxGeometry>
        </mxCell>
        <mxCell id="IHgsMJMbLqcfS5eTaFf3-269" style="edgeStyle=orthogonalEdgeStyle;rounded=0;orthogonalLoop=1;jettySize=auto;html=1;exitX=0.5;exitY=1;exitDx=0;exitDy=0;exitPerimeter=0;entryX=1;entryY=0.5;entryDx=0;entryDy=0;entryPerimeter=0;" edge="1" parent="IHgsMJMbLqcfS5eTaFf3-27" source="IHgsMJMbLqcfS5eTaFf3-137" target="IHgsMJMbLqcfS5eTaFf3-117">
          <mxGeometry relative="1" as="geometry" />
        </mxCell>
        <mxCell id="IHgsMJMbLqcfS5eTaFf3-270" value="Programmatic&lt;div&gt;Access&lt;/div&gt;&lt;div&gt;to change Privileges&lt;/div&gt;" style="edgeLabel;html=1;align=center;verticalAlign=middle;resizable=0;points=[];" connectable="0" vertex="1" parent="IHgsMJMbLqcfS5eTaFf3-269">
          <mxGeometry x="0.0715" y="-2" relative="1" as="geometry">
            <mxPoint as="offset" />
          </mxGeometry>
        </mxCell>
        <mxCell id="IHgsMJMbLqcfS5eTaFf3-301" value="Keycloak" style="shape=callout;whiteSpace=wrap;html=1;perimeter=calloutPerimeter;position2=0;fontStyle=0" vertex="1" parent="IHgsMJMbLqcfS5eTaFf3-27">
          <mxGeometry x="1455" y="302" width="120" height="80" as="geometry" />
        </mxCell>
        <mxCell id="IHgsMJMbLqcfS5eTaFf3-302" value="Ambassdor&lt;div&gt;an OSS K8 native&lt;/div&gt;&lt;div&gt;API Gateway (envoy proxy)&amp;nbsp;&lt;/div&gt;" style="shape=callout;whiteSpace=wrap;html=1;perimeter=calloutPerimeter;position2=1;fontStyle=0" vertex="1" parent="IHgsMJMbLqcfS5eTaFf3-27">
          <mxGeometry x="460" y="310" width="125" height="90" as="geometry" />
        </mxCell>
        <mxCell id="IHgsMJMbLqcfS5eTaFf3-40" value="1) AUTHENTICATION &amp;amp; AUTHORIZATION &lt;span style=&quot;font-weight: normal;&quot;&gt;Current Design&amp;nbsp;&lt;/span&gt;" style="swimlane;horizontal=0;whiteSpace=wrap;html=1;startSize=30;" vertex="1" parent="1">
          <mxGeometry x="-650" y="100" width="2070" height="369" as="geometry" />
        </mxCell>
        <mxCell id="IHgsMJMbLqcfS5eTaFf3-70" value="" style="edgeStyle=orthogonalEdgeStyle;rounded=0;orthogonalLoop=1;jettySize=auto;html=1;" edge="1" parent="IHgsMJMbLqcfS5eTaFf3-40">
          <mxGeometry relative="1" as="geometry">
            <mxPoint x="865" y="169.42857142857156" as="sourcePoint" />
          </mxGeometry>
        </mxCell>
        <mxCell id="IHgsMJMbLqcfS5eTaFf3-51" value="" style="edgeStyle=orthogonalEdgeStyle;rounded=0;orthogonalLoop=1;jettySize=auto;html=1;" edge="1" parent="IHgsMJMbLqcfS5eTaFf3-40" source="IHgsMJMbLqcfS5eTaFf3-48" target="IHgsMJMbLqcfS5eTaFf3-50">
          <mxGeometry relative="1" as="geometry" />
        </mxCell>
        <mxCell id="IHgsMJMbLqcfS5eTaFf3-55" value="" style="edgeStyle=orthogonalEdgeStyle;rounded=0;orthogonalLoop=1;jettySize=auto;html=1;" edge="1" parent="IHgsMJMbLqcfS5eTaFf3-40" source="IHgsMJMbLqcfS5eTaFf3-48" target="IHgsMJMbLqcfS5eTaFf3-54">
          <mxGeometry relative="1" as="geometry" />
        </mxCell>
        <mxCell id="IHgsMJMbLqcfS5eTaFf3-48" value="RBAC (on Client Side)&lt;div&gt;&lt;br&gt;&lt;div&gt;RBAC rule:&amp;nbsp;&lt;/div&gt;&lt;div&gt;one who logs in from an organization&lt;/div&gt;&lt;div&gt;&lt;span style=&quot;background-color: initial;&quot;&gt;first gets the&amp;nbsp;&lt;/span&gt;&lt;/div&gt;&lt;div&gt;&lt;span style=&quot;background-color: initial;&quot;&gt;admin privileges&amp;nbsp;&lt;/span&gt;&lt;/div&gt;&lt;/div&gt;" style="whiteSpace=wrap;html=1;strokeColor=#666666;strokeWidth=1;shadow=0;dashed=0;" vertex="1" parent="IHgsMJMbLqcfS5eTaFf3-40">
          <mxGeometry x="1340" y="69.5" width="150" height="200" as="geometry" />
        </mxCell>
        <mxCell id="IHgsMJMbLqcfS5eTaFf3-50" value="One with full administrative privileges&amp;nbsp;&lt;div&gt;gets redirects to the UI with the access of the&amp;nbsp;&lt;/div&gt;&lt;div&gt;product + organization&lt;/div&gt;&lt;div&gt;&lt;i&gt;just from the client side&lt;/i&gt;&lt;/div&gt;" style="whiteSpace=wrap;html=1;strokeColor=#666666;strokeWidth=1;shadow=0;dashed=0;" vertex="1" parent="IHgsMJMbLqcfS5eTaFf3-40">
          <mxGeometry x="1720" y="22" width="220" height="142" as="geometry" />
        </mxCell>
        <mxCell id="IHgsMJMbLqcfS5eTaFf3-54" value="Access to Organization section&lt;div&gt;just to assess the business logic&lt;/div&gt;&lt;div&gt;of the application&lt;/div&gt;" style="whiteSpace=wrap;html=1;strokeColor=#666666;strokeWidth=1;shadow=0;dashed=0;" vertex="1" parent="IHgsMJMbLqcfS5eTaFf3-40">
          <mxGeometry x="1725" y="187.5" width="220" height="130" as="geometry" />
        </mxCell>
        <mxCell id="IHgsMJMbLqcfS5eTaFf3-3" value="" style="strokeWidth=1;shadow=0;dashed=0;align=center;html=1;shape=mxgraph.mockup.containers.browserWindow;rSize=0;strokeColor=#666666;strokeColor2=#008cff;strokeColor3=#c4c4c4;mainText=,;recursiveResize=0;" vertex="1" parent="IHgsMJMbLqcfS5eTaFf3-40">
          <mxGeometry x="240" y="52" width="290" height="240" as="geometry" />
        </mxCell>
        <mxCell id="IHgsMJMbLqcfS5eTaFf3-4" value="Page 1" style="strokeWidth=1;shadow=0;dashed=0;align=center;html=1;shape=mxgraph.mockup.containers.anchor;fontSize=17;fontColor=#666666;align=left;whiteSpace=wrap;" vertex="1" parent="IHgsMJMbLqcfS5eTaFf3-3">
          <mxGeometry x="60" y="12" width="110" height="26" as="geometry" />
        </mxCell>
        <mxCell id="IHgsMJMbLqcfS5eTaFf3-5" value="https://www.draw.io" style="strokeWidth=1;shadow=0;dashed=0;align=center;html=1;shape=mxgraph.mockup.containers.anchor;rSize=0;fontSize=17;fontColor=#666666;align=left;" vertex="1" parent="IHgsMJMbLqcfS5eTaFf3-3">
          <mxGeometry x="130" y="60" width="250" height="26" as="geometry" />
        </mxCell>
        <mxCell id="IHgsMJMbLqcfS5eTaFf3-29" value="" style="shape=table;startSize=0;container=1;collapsible=0;childLayout=tableLayout;" vertex="1" parent="IHgsMJMbLqcfS5eTaFf3-3">
          <mxGeometry x="10" y="122" width="270" height="110" as="geometry" />
        </mxCell>
        <mxCell id="IHgsMJMbLqcfS5eTaFf3-30" value="" style="shape=tableRow;horizontal=0;startSize=0;swimlaneHead=0;swimlaneBody=0;strokeColor=inherit;top=0;left=0;bottom=0;right=0;collapsible=0;dropTarget=0;fillColor=none;points=[[0,0.5],[1,0.5]];portConstraint=eastwest;" vertex="1" parent="IHgsMJMbLqcfS5eTaFf3-29">
          <mxGeometry width="270" height="55" as="geometry" />
        </mxCell>
        <mxCell id="IHgsMJMbLqcfS5eTaFf3-31" value="&lt;b&gt;Login&lt;/b&gt;" style="shape=partialRectangle;html=1;whiteSpace=wrap;connectable=0;strokeColor=inherit;overflow=hidden;fillColor=none;top=0;left=0;bottom=0;right=0;pointerEvents=1;" vertex="1" parent="IHgsMJMbLqcfS5eTaFf3-30">
          <mxGeometry width="270" height="55" as="geometry">
            <mxRectangle width="270" height="55" as="alternateBounds" />
          </mxGeometry>
        </mxCell>
        <mxCell id="IHgsMJMbLqcfS5eTaFf3-32" value="" style="shape=tableRow;horizontal=0;startSize=0;swimlaneHead=0;swimlaneBody=0;strokeColor=inherit;top=0;left=0;bottom=0;right=0;collapsible=0;dropTarget=0;fillColor=none;points=[[0,0.5],[1,0.5]];portConstraint=eastwest;" vertex="1" parent="IHgsMJMbLqcfS5eTaFf3-29">
          <mxGeometry y="55" width="270" height="55" as="geometry" />
        </mxCell>
        <mxCell id="IHgsMJMbLqcfS5eTaFf3-33" value="&lt;b&gt;Signup&lt;/b&gt;" style="shape=partialRectangle;html=1;whiteSpace=wrap;connectable=0;strokeColor=inherit;overflow=hidden;fillColor=none;top=0;left=0;bottom=0;right=0;pointerEvents=1;" vertex="1" parent="IHgsMJMbLqcfS5eTaFf3-32">
          <mxGeometry width="270" height="55" as="geometry">
            <mxRectangle width="270" height="55" as="alternateBounds" />
          </mxGeometry>
        </mxCell>
        <mxCell id="IHgsMJMbLqcfS5eTaFf3-34" value="" style="group" connectable="0" vertex="1" parent="IHgsMJMbLqcfS5eTaFf3-3">
          <mxGeometry x="10" y="122" width="270" height="110" as="geometry" />
        </mxCell>
        <mxCell id="IHgsMJMbLqcfS5eTaFf3-24" value="" style="group" connectable="0" vertex="1" parent="IHgsMJMbLqcfS5eTaFf3-34">
          <mxGeometry width="270" height="110" as="geometry" />
        </mxCell>
        <mxCell id="IHgsMJMbLqcfS5eTaFf3-18" value="with Third Party Auth" style="rounded=1;whiteSpace=wrap;html=1;" vertex="1" parent="IHgsMJMbLqcfS5eTaFf3-24">
          <mxGeometry x="67.5008695652174" y="46.75" width="135" height="16.5" as="geometry" />
        </mxCell>
        <mxCell id="IHgsMJMbLqcfS5eTaFf3-45" value="" style="edgeStyle=orthogonalEdgeStyle;rounded=0;orthogonalLoop=1;jettySize=auto;html=1;" edge="1" parent="IHgsMJMbLqcfS5eTaFf3-40" source="IHgsMJMbLqcfS5eTaFf3-3" target="IHgsMJMbLqcfS5eTaFf3-62">
          <mxGeometry relative="1" as="geometry">
            <mxPoint x="745" y="169.42857142857156" as="targetPoint" />
          </mxGeometry>
        </mxCell>
        <mxCell id="IHgsMJMbLqcfS5eTaFf3-59" value="User&lt;div&gt;Login request&amp;nbsp;&lt;/div&gt;&lt;div&gt;with&amp;nbsp;&lt;/div&gt;&lt;div&gt;&lt;div&gt;Credentials&lt;/div&gt;&lt;/div&gt;" style="edgeLabel;html=1;align=center;verticalAlign=middle;resizable=0;points=[];" connectable="0" vertex="1" parent="IHgsMJMbLqcfS5eTaFf3-45">
          <mxGeometry x="-0.073" y="1" relative="1" as="geometry">
            <mxPoint x="-59" as="offset" />
          </mxGeometry>
        </mxCell>
        <mxCell id="IHgsMJMbLqcfS5eTaFf3-72" value="(Plain Text)" style="edgeLabel;html=1;align=center;verticalAlign=middle;resizable=0;points=[];" connectable="0" vertex="1" parent="IHgsMJMbLqcfS5eTaFf3-45">
          <mxGeometry x="0.4209" relative="1" as="geometry">
            <mxPoint x="-13" y="-5" as="offset" />
          </mxGeometry>
        </mxCell>
        <mxCell id="IHgsMJMbLqcfS5eTaFf3-57" value="" style="edgeStyle=orthogonalEdgeStyle;rounded=0;orthogonalLoop=1;jettySize=auto;html=1;" edge="1" parent="IHgsMJMbLqcfS5eTaFf3-40" source="IHgsMJMbLqcfS5eTaFf3-25" target="IHgsMJMbLqcfS5eTaFf3-3">
          <mxGeometry relative="1" as="geometry" />
        </mxCell>
        <mxCell id="IHgsMJMbLqcfS5eTaFf3-25" value="USER" style="sketch=0;outlineConnect=0;fontColor=#232F3E;gradientColor=none;fillColor=#232F3D;strokeColor=none;dashed=0;verticalLabelPosition=bottom;verticalAlign=top;align=center;html=1;fontSize=12;fontStyle=0;aspect=fixed;pointerEvents=1;shape=mxgraph.aws4.user;" vertex="1" parent="IHgsMJMbLqcfS5eTaFf3-40">
          <mxGeometry x="90" y="142" width="58" height="58" as="geometry" />
        </mxCell>
        <mxCell id="IHgsMJMbLqcfS5eTaFf3-69" style="edgeStyle=orthogonalEdgeStyle;rounded=0;orthogonalLoop=1;jettySize=auto;html=1;exitX=1;exitY=0.5;exitDx=0;exitDy=0;exitPerimeter=0;entryX=0;entryY=0.5;entryDx=0;entryDy=0;" edge="1" parent="IHgsMJMbLqcfS5eTaFf3-40" source="IHgsMJMbLqcfS5eTaFf3-62" target="IHgsMJMbLqcfS5eTaFf3-48">
          <mxGeometry relative="1" as="geometry">
            <mxPoint x="1000" y="170" as="targetPoint" />
          </mxGeometry>
        </mxCell>
        <mxCell id="IHgsMJMbLqcfS5eTaFf3-62" value="&lt;div&gt;&lt;br&gt;&lt;/div&gt;&lt;div&gt;&lt;br&gt;&lt;/div&gt;&lt;div&gt;&lt;br&gt;&lt;/div&gt;&lt;div style=&quot;text-align: right;&quot;&gt;&lt;span style=&quot;background-color: initial;&quot;&gt;User&amp;nbsp;&lt;/span&gt;&lt;/div&gt;&lt;div&gt;&lt;div style=&quot;text-align: right;&quot;&gt;&lt;span style=&quot;background-color: initial;&quot;&gt;&amp;nbsp; &amp;nbsp; &amp;nbsp; Account&lt;/span&gt;&lt;/div&gt;&lt;div style=&quot;text-align: right;&quot;&gt;&amp;nbsp; Database&lt;/div&gt;&lt;/div&gt;&lt;div style=&quot;text-align: right;&quot;&gt;&lt;br&gt;&lt;/div&gt;" style="strokeWidth=2;html=1;shape=mxgraph.flowchart.database;whiteSpace=wrap;" vertex="1" parent="IHgsMJMbLqcfS5eTaFf3-40">
          <mxGeometry x="990" y="139.25" width="100" height="100.75" as="geometry" />
        </mxCell>
        <mxCell id="IHgsMJMbLqcfS5eTaFf3-73" value="" style="dashed=0;outlineConnect=0;html=1;align=center;labelPosition=center;verticalLabelPosition=bottom;verticalAlign=top;shape=mxgraph.weblogos.mongodb" vertex="1" parent="IHgsMJMbLqcfS5eTaFf3-40">
          <mxGeometry x="1000" y="170" width="20" height="55.2" as="geometry" />
        </mxCell>
        <mxCell id="IHgsMJMbLqcfS5eTaFf3-159" value="1) Login Microservice Architecture" style="text;strokeColor=none;fillColor=none;html=1;fontSize=24;fontStyle=1;verticalAlign=middle;align=center;" vertex="1" parent="1">
          <mxGeometry x="-830" y="40" width="370" height="20" as="geometry" />
        </mxCell>
        <mxCell id="IHgsMJMbLqcfS5eTaFf3-160" value="User Section&amp;nbsp;&lt;div&gt;Microservice Architecture&lt;span style=&quot;background-color: initial;&quot;&gt;(Organization)&lt;/span&gt;&lt;/div&gt;" style="text;strokeColor=none;fillColor=none;html=1;fontSize=24;fontStyle=1;verticalAlign=middle;align=left;" vertex="1" parent="1">
          <mxGeometry x="-840" y="1430" width="490" height="20" as="geometry" />
        </mxCell>
        <mxCell id="IHgsMJMbLqcfS5eTaFf3-258" value="Horizontal Container" style="swimlane;horizontal=0;whiteSpace=wrap;html=1;" vertex="1" parent="1">
          <mxGeometry x="-760" y="1490" width="2400" height="1790" as="geometry" />
        </mxCell>
        <mxCell id="IHgsMJMbLqcfS5eTaFf3-174" value="" style="strokeWidth=1;shadow=0;dashed=0;align=center;html=1;shape=mxgraph.mockup.containers.browserWindow;rSize=0;strokeColor=#666666;strokeColor2=#008cff;strokeColor3=#c4c4c4;mainText=,;recursiveResize=0;" vertex="1" parent="IHgsMJMbLqcfS5eTaFf3-258">
          <mxGeometry x="63" y="65" width="545" height="490" as="geometry" />
        </mxCell>
        <mxCell id="IHgsMJMbLqcfS5eTaFf3-175" value="" style="shape=ellipse;html=1;dashed=0;whiteSpace=wrap;aspect=fixed;strokeWidth=5;perimeter=ellipsePerimeter;" vertex="1" parent="IHgsMJMbLqcfS5eTaFf3-174">
          <mxGeometry x="12.379999999999999" y="359" width="50" height="50" as="geometry" />
        </mxCell>
        <mxCell id="IHgsMJMbLqcfS5eTaFf3-176" value="" style="shape=ellipse;html=1;dashed=0;whiteSpace=wrap;aspect=fixed;strokeWidth=5;perimeter=ellipsePerimeter;" vertex="1" parent="IHgsMJMbLqcfS5eTaFf3-174">
          <mxGeometry x="12.379999999999999" y="297" width="50" height="50" as="geometry" />
        </mxCell>
        <mxCell id="IHgsMJMbLqcfS5eTaFf3-177" value="" style="shape=ellipse;html=1;dashed=0;whiteSpace=wrap;aspect=fixed;strokeWidth=5;perimeter=ellipsePerimeter;" vertex="1" parent="IHgsMJMbLqcfS5eTaFf3-174">
          <mxGeometry x="12.629999999999999" y="177" width="50" height="50" as="geometry" />
        </mxCell>
        <mxCell id="IHgsMJMbLqcfS5eTaFf3-178" value="Page 1" style="strokeWidth=1;shadow=0;dashed=0;align=center;html=1;shape=mxgraph.mockup.containers.anchor;fontSize=17;fontColor=#666666;align=left;whiteSpace=wrap;" vertex="1" parent="IHgsMJMbLqcfS5eTaFf3-174">
          <mxGeometry x="60" y="12" width="110" height="26" as="geometry" />
        </mxCell>
        <mxCell id="IHgsMJMbLqcfS5eTaFf3-179" value="https://www.draw.io" style="strokeWidth=1;shadow=0;dashed=0;align=center;html=1;shape=mxgraph.mockup.containers.anchor;rSize=0;fontSize=17;fontColor=#666666;align=left;" vertex="1" parent="IHgsMJMbLqcfS5eTaFf3-174">
          <mxGeometry x="130" y="60" width="250" height="26" as="geometry" />
        </mxCell>
        <mxCell id="IHgsMJMbLqcfS5eTaFf3-180" value="" style="html=1;shadow=0;dashed=0;fillColor=#E3F3FD;strokeColor=none;fontSize=16;fontColor=#161819;align=left;spacing=15;" vertex="1" parent="IHgsMJMbLqcfS5eTaFf3-174">
          <mxGeometry y="110" width="540" height="60" as="geometry" />
        </mxCell>
        <mxCell id="IHgsMJMbLqcfS5eTaFf3-181" value="&lt;font style=&quot;font-size: 18px;&quot;&gt;&lt;b&gt;ORG NAME&lt;/b&gt;&lt;/font&gt;" style="text;html=1;align=left;verticalAlign=middle;whiteSpace=wrap;rounded=0;" vertex="1" parent="IHgsMJMbLqcfS5eTaFf3-180">
          <mxGeometry x="8" width="43.199999999999996" height="60" as="geometry" />
        </mxCell>
        <mxCell id="IHgsMJMbLqcfS5eTaFf3-218" value="" style="shape=image;html=1;verticalAlign=top;verticalLabelPosition=bottom;labelBackgroundColor=#ffffff;imageAspect=0;aspect=fixed;image=https://cdn4.iconfinder.com/data/icons/essential-app-2/16/app-tile-block-menu-setting-128.png" vertex="1" parent="IHgsMJMbLqcfS5eTaFf3-180">
          <mxGeometry x="388.93" y="6.960000000000022" width="46.07" height="46.07" as="geometry" />
        </mxCell>
        <mxCell id="IHgsMJMbLqcfS5eTaFf3-194" value="" style="image;aspect=fixed;perimeter=ellipsePerimeter;html=1;align=center;shadow=0;dashed=0;fontColor=#4277BB;labelBackgroundColor=default;fontSize=12;spacingTop=3;image=img/lib/ibm/infrastructure/dashboard.svg;" vertex="1" parent="IHgsMJMbLqcfS5eTaFf3-174">
          <mxGeometry x="12.629999999999999" y="177" width="50" height="50" as="geometry" />
        </mxCell>
        <mxCell id="IHgsMJMbLqcfS5eTaFf3-195" value="" style="shape=ellipse;html=1;dashed=0;whiteSpace=wrap;aspect=fixed;strokeWidth=5;perimeter=ellipsePerimeter;" vertex="1" parent="IHgsMJMbLqcfS5eTaFf3-174">
          <mxGeometry x="12.379999999999999" y="236" width="50" height="50" as="geometry" />
        </mxCell>
        <mxCell id="IHgsMJMbLqcfS5eTaFf3-196" value="" style="shape=image;html=1;verticalAlign=top;verticalLabelPosition=bottom;labelBackgroundColor=#ffffff;imageAspect=0;aspect=fixed;image=https://cdn1.iconfinder.com/data/icons/Vista-Inspirate_1.0/128x128/apps/advancedsettings.png" vertex="1" parent="IHgsMJMbLqcfS5eTaFf3-174">
          <mxGeometry x="18.63" y="242.5" width="39" height="39" as="geometry" />
        </mxCell>
        <mxCell id="IHgsMJMbLqcfS5eTaFf3-197" value="" style="image;aspect=fixed;html=1;points=[];align=center;fontSize=12;image=img/lib/azure2/azure_stack/Plans.svg;" vertex="1" parent="IHgsMJMbLqcfS5eTaFf3-174">
          <mxGeometry x="24.32" y="305" width="27.63" height="34" as="geometry" />
        </mxCell>
        <mxCell id="IHgsMJMbLqcfS5eTaFf3-198" value="" style="sketch=0;outlineConnect=0;fontColor=#232F3E;gradientColor=none;fillColor=#DD344C;strokeColor=none;dashed=0;verticalLabelPosition=bottom;verticalAlign=top;align=center;html=1;fontSize=12;fontStyle=0;aspect=fixed;shape=mxgraph.aws4.location_service_track;" vertex="1" parent="IHgsMJMbLqcfS5eTaFf3-174">
          <mxGeometry x="24.13" y="369" width="30" height="30" as="geometry" />
        </mxCell>
        <mxCell id="IHgsMJMbLqcfS5eTaFf3-199" value="" style="shape=ellipse;html=1;dashed=0;whiteSpace=wrap;aspect=fixed;strokeWidth=5;perimeter=ellipsePerimeter;" vertex="1" parent="IHgsMJMbLqcfS5eTaFf3-174">
          <mxGeometry x="12.379999999999999" y="419" width="50" height="50" as="geometry" />
        </mxCell>
        <mxCell id="IHgsMJMbLqcfS5eTaFf3-200" value="" style="shape=image;html=1;verticalAlign=top;verticalLabelPosition=bottom;labelBackgroundColor=#ffffff;imageAspect=0;aspect=fixed;image=https://cdn0.iconfinder.com/data/icons/evericons-24px-vol-1/24/settings-128.png" vertex="1" parent="IHgsMJMbLqcfS5eTaFf3-174">
          <mxGeometry x="17.63" y="424" width="41" height="41" as="geometry" />
        </mxCell>
        <mxCell id="IHgsMJMbLqcfS5eTaFf3-211" value="&lt;b&gt;Dashboard&lt;/b&gt;" style="rounded=1;arcSize=10;fillColor=#172B4D;strokeColor=none;html=1;fontSize=11;align=center;fontColor=#ffffff;fontStyle=0;fontSize=11;sketch=0;" vertex="1" parent="IHgsMJMbLqcfS5eTaFf3-174">
          <mxGeometry x="70" y="185.5" width="110" height="33" as="geometry" />
        </mxCell>
        <mxCell id="IHgsMJMbLqcfS5eTaFf3-217" value="&lt;b&gt;Settings&lt;/b&gt;" style="rounded=1;arcSize=10;fillColor=#172B4D;strokeColor=none;html=1;fontSize=11;align=center;fontColor=#ffffff;fontStyle=0;fontSize=11;sketch=0;" vertex="1" parent="IHgsMJMbLqcfS5eTaFf3-174">
          <mxGeometry x="70" y="424" width="110" height="33" as="geometry" />
        </mxCell>
        <mxCell id="IHgsMJMbLqcfS5eTaFf3-216" value="&lt;b&gt;Track&lt;/b&gt;" style="rounded=1;arcSize=10;fillColor=#172B4D;strokeColor=none;html=1;fontSize=11;align=center;fontColor=#ffffff;fontStyle=0;fontSize=11;sketch=0;" vertex="1" parent="IHgsMJMbLqcfS5eTaFf3-174">
          <mxGeometry x="70" y="367.5" width="110" height="33" as="geometry" />
        </mxCell>
        <mxCell id="IHgsMJMbLqcfS5eTaFf3-215" value="&lt;b&gt;Plan&lt;/b&gt;" style="rounded=1;arcSize=10;fillColor=#172B4D;strokeColor=none;html=1;fontSize=11;align=center;fontColor=#ffffff;fontStyle=0;fontSize=11;sketch=0;" vertex="1" parent="IHgsMJMbLqcfS5eTaFf3-174">
          <mxGeometry x="70" y="305.5" width="110" height="33" as="geometry" />
        </mxCell>
        <mxCell id="IHgsMJMbLqcfS5eTaFf3-214" value="&lt;b&gt;Setup&lt;/b&gt;" style="rounded=1;arcSize=10;fillColor=#172B4D;strokeColor=none;html=1;fontSize=11;align=center;fontColor=#ffffff;fontStyle=0;fontSize=11;sketch=0;" vertex="1" parent="IHgsMJMbLqcfS5eTaFf3-174">
          <mxGeometry x="70" y="245.5" width="110" height="33" as="geometry" />
        </mxCell>
        <mxCell id="IHgsMJMbLqcfS5eTaFf3-219" value="" style="shape=image;html=1;verticalAlign=top;verticalLabelPosition=bottom;labelBackgroundColor=#ffffff;imageAspect=0;aspect=fixed;image=https://cdn0.iconfinder.com/data/icons/google-material-design-3-0/48/ic_account_circle_48px-128.png" vertex="1" parent="IHgsMJMbLqcfS5eTaFf3-174">
          <mxGeometry x="465" y="110" width="60" height="60" as="geometry" />
        </mxCell>
        <mxCell id="IHgsMJMbLqcfS5eTaFf3-220" value="" style="html=1;shadow=0;dashed=0;shape=mxgraph.bootstrap.rrect;rSize=5;fillColor=#ffffff;strokeColor=#999999;" vertex="1" parent="IHgsMJMbLqcfS5eTaFf3-174">
          <mxGeometry x="435" y="167" width="110" height="140" as="geometry" />
        </mxCell>
        <mxCell id="IHgsMJMbLqcfS5eTaFf3-221" value="             Name&#xa;             Mail ID" style="fillColor=none;strokeColor=none;align=left;spacing=20;fontSize=12;fontColor=#757E85;fontStyle=1;" vertex="1" parent="IHgsMJMbLqcfS5eTaFf3-220">
          <mxGeometry width="110" height="30" relative="1" as="geometry">
            <mxPoint y="10" as="offset" />
          </mxGeometry>
        </mxCell>
        <mxCell id="IHgsMJMbLqcfS5eTaFf3-222" value="Save" style="fillColor=none;strokeColor=none;align=left;spacing=20;fontSize=14;" vertex="1" parent="IHgsMJMbLqcfS5eTaFf3-220">
          <mxGeometry width="110" height="30" relative="1" as="geometry">
            <mxPoint y="40" as="offset" />
          </mxGeometry>
        </mxCell>
        <mxCell id="IHgsMJMbLqcfS5eTaFf3-223" value="User Control" style="fillColor=none;strokeColor=none;align=left;spacing=20;fontSize=14;" vertex="1" parent="IHgsMJMbLqcfS5eTaFf3-220">
          <mxGeometry width="110" height="30" relative="1" as="geometry">
            <mxPoint y="70" as="offset" />
          </mxGeometry>
        </mxCell>
        <mxCell id="IHgsMJMbLqcfS5eTaFf3-224" value="" style="shape=image;html=1;verticalAlign=top;verticalLabelPosition=bottom;labelBackgroundColor=#ffffff;imageAspect=0;aspect=fixed;image=https://cdn0.iconfinder.com/data/icons/google-material-design-3-0/48/ic_account_circle_48px-128.png" vertex="1" parent="IHgsMJMbLqcfS5eTaFf3-220">
          <mxGeometry x="20" y="3" width="37" height="37" as="geometry" />
        </mxCell>
        <mxCell id="IHgsMJMbLqcfS5eTaFf3-225" value="Log Out" style="fillColor=none;strokeColor=none;align=left;spacing=20;fontSize=14;" vertex="1" parent="IHgsMJMbLqcfS5eTaFf3-220">
          <mxGeometry y="99.0023076923077" width="90.58823529411765" height="32.30769230769231" as="geometry" />
        </mxCell>
        <mxCell id="IHgsMJMbLqcfS5eTaFf3-226" value="" style="html=1;shadow=0;dashed=0;shape=mxgraph.bootstrap.rrect;rSize=5;fillColor=#ffffff;strokeColor=#999999;" vertex="1" parent="IHgsMJMbLqcfS5eTaFf3-174">
          <mxGeometry x="253" y="166.5" width="182" height="76" as="geometry" />
        </mxCell>
        <mxCell id="IHgsMJMbLqcfS5eTaFf3-227" value="dwinzo" style="sketch=0;outlineConnect=0;fontColor=#232F3E;gradientColor=none;strokeColor=#232F3E;fillColor=#ffffff;dashed=0;verticalLabelPosition=bottom;verticalAlign=top;align=center;html=1;fontSize=12;fontStyle=0;aspect=fixed;shape=mxgraph.aws4.resourceIcon;resIcon=mxgraph.aws4.application;" vertex="1" parent="IHgsMJMbLqcfS5eTaFf3-174">
          <mxGeometry x="263" y="169.5" width="40" height="40" as="geometry" />
        </mxCell>
        <mxCell id="IHgsMJMbLqcfS5eTaFf3-228" value="&lt;b&gt;organization&lt;/b&gt;" style="sketch=0;outlineConnect=0;fontColor=#232F3E;gradientColor=none;fillColor=#232F3D;strokeColor=none;dashed=0;verticalLabelPosition=bottom;verticalAlign=top;align=center;html=1;fontSize=12;fontStyle=0;aspect=fixed;pointerEvents=1;shape=mxgraph.aws4.office_building;" vertex="1" parent="IHgsMJMbLqcfS5eTaFf3-174">
          <mxGeometry x="327" y="169.5" width="25.64" height="40" as="geometry" />
        </mxCell>
        <mxCell id="IHgsMJMbLqcfS5eTaFf3-229" value="Coming&lt;div&gt;soon&lt;/div&gt;" style="text;html=1;align=center;verticalAlign=middle;whiteSpace=wrap;rounded=0;" vertex="1" parent="IHgsMJMbLqcfS5eTaFf3-174">
          <mxGeometry x="366" y="179.5" width="60" height="30" as="geometry" />
        </mxCell>
        <mxCell id="IHgsMJMbLqcfS5eTaFf3-272" value="" style="group" connectable="0" vertex="1" parent="IHgsMJMbLqcfS5eTaFf3-258">
          <mxGeometry x="239.64000000000033" y="715" width="350" height="280" as="geometry" />
        </mxCell>
        <object placeholders="1" c4Name="DWinzo Home UI Container - Organization" c4Type="ContainerScopeBoundary" c4Application="DWinzo Container: Priority Top" label="&lt;font style=&quot;font-size: 16px&quot;&gt;&lt;b&gt;&lt;div style=&quot;text-align: left&quot;&gt;%c4Name%&lt;/div&gt;&lt;/b&gt;&lt;/font&gt;&lt;div style=&quot;text-align: left&quot;&gt;[%c4Application%]&lt;/div&gt;" id="IHgsMJMbLqcfS5eTaFf3-273">
          <mxCell style="rounded=1;fontSize=11;whiteSpace=wrap;html=1;dashed=1;arcSize=20;fillColor=none;strokeColor=#666666;fontColor=#333333;labelBackgroundColor=none;align=left;verticalAlign=bottom;labelBorderColor=none;spacingTop=0;spacing=10;dashPattern=8 4;metaEdit=1;rotatable=0;perimeter=rectanglePerimeter;noLabel=0;labelPadding=0;allowArrows=0;connectable=0;expand=0;recursiveResize=0;editable=1;pointerEvents=0;absoluteArcSize=1;points=[[0.25,0,0],[0.5,0,0],[0.75,0,0],[1,0.25,0],[1,0.5,0],[1,0.75,0],[0.75,1,0],[0.5,1,0],[0.25,1,0],[0,0.75,0],[0,0.5,0],[0,0.25,0]];" vertex="1" parent="IHgsMJMbLqcfS5eTaFf3-272">
            <mxGeometry x="10" width="340" height="280" as="geometry" />
          </mxCell>
        </object>
        <mxCell id="IHgsMJMbLqcfS5eTaFf3-274" value="" style="edgeStyle=elbowEdgeStyle;rounded=0;orthogonalLoop=1;jettySize=auto;html=1;" edge="1" parent="IHgsMJMbLqcfS5eTaFf3-272" source="IHgsMJMbLqcfS5eTaFf3-275" target="IHgsMJMbLqcfS5eTaFf3-279">
          <mxGeometry relative="1" as="geometry" />
        </mxCell>
        <mxCell id="IHgsMJMbLqcfS5eTaFf3-275" value="React" style="shape=image;html=1;verticalAlign=top;verticalLabelPosition=bottom;labelBackgroundColor=#ffffff;imageAspect=0;aspect=fixed;image=https://cdn1.iconfinder.com/data/icons/ionicons-fill-vol-2/512/logo-react-128.png" vertex="1" parent="IHgsMJMbLqcfS5eTaFf3-272">
          <mxGeometry x="10" width="25.714285714285715" height="25.714285714285715" as="geometry" />
        </mxCell>
        <mxCell id="IHgsMJMbLqcfS5eTaFf3-276" value="" style="group" connectable="0" vertex="1" parent="IHgsMJMbLqcfS5eTaFf3-272">
          <mxGeometry y="70" width="70" height="70" as="geometry" />
        </mxCell>
        <mxCell id="IHgsMJMbLqcfS5eTaFf3-277" value="&lt;div&gt;&lt;br&gt;&lt;/div&gt;&amp;nbsp; 3JS" style="rounded=0;whiteSpace=wrap;html=1;" vertex="1" parent="IHgsMJMbLqcfS5eTaFf3-276">
          <mxGeometry x="10" width="34.72" height="40" as="geometry" />
        </mxCell>
        <mxCell id="IHgsMJMbLqcfS5eTaFf3-278" value="ThreeJS" style="text;html=1;align=center;verticalAlign=middle;resizable=0;points=[];autosize=1;strokeColor=none;fillColor=none;" vertex="1" parent="IHgsMJMbLqcfS5eTaFf3-276">
          <mxGeometry y="40" width="70" height="30" as="geometry" />
        </mxCell>
        <mxCell id="IHgsMJMbLqcfS5eTaFf3-279" value="&lt;span style=&quot;text-wrap: nowrap; background-color: rgb(251, 251, 251);&quot;&gt;Cache / Static UI files of each&lt;/span&gt;&lt;br&gt;&lt;div&gt;&lt;div&gt;presenting&amp;nbsp;&lt;/div&gt;&lt;/div&gt;&lt;div&gt;Navbar and the Menu options&lt;/div&gt;&lt;div&gt;under Organization&lt;/div&gt;" style="whiteSpace=wrap;html=1;verticalAlign=top;labelBackgroundColor=#ffffff;" vertex="1" parent="IHgsMJMbLqcfS5eTaFf3-272">
          <mxGeometry x="90" width="210" height="80" as="geometry" />
        </mxCell>
        <mxCell id="IHgsMJMbLqcfS5eTaFf3-280" value="" style="edgeStyle=elbowEdgeStyle;rounded=0;orthogonalLoop=1;jettySize=auto;html=1;" edge="1" parent="IHgsMJMbLqcfS5eTaFf3-272" source="IHgsMJMbLqcfS5eTaFf3-277">
          <mxGeometry relative="1" as="geometry">
            <mxPoint x="90" y="100" as="targetPoint" />
          </mxGeometry>
        </mxCell>
        <mxCell id="IHgsMJMbLqcfS5eTaFf3-281" value="For 3D Visualization" style="rounded=0;whiteSpace=wrap;html=1;" vertex="1" parent="IHgsMJMbLqcfS5eTaFf3-272">
          <mxGeometry x="89" y="87" width="211" height="43" as="geometry" />
        </mxCell>
        <mxCell id="IHgsMJMbLqcfS5eTaFf3-282" style="edgeStyle=orthogonalEdgeStyle;rounded=0;orthogonalLoop=1;jettySize=auto;html=1;entryX=0.157;entryY=1;entryDx=0;entryDy=0;entryPerimeter=0;" edge="1" parent="IHgsMJMbLqcfS5eTaFf3-258" source="IHgsMJMbLqcfS5eTaFf3-279">
          <mxGeometry relative="1" as="geometry">
            <mxPoint x="305.6400000000003" y="555" as="targetPoint" />
          </mxGeometry>
        </mxCell>
        <mxCell id="IHgsMJMbLqcfS5eTaFf3-283" value="Home Page - ORGANIZATION -  Common Pods, Priority: Below Top" style="shape=table;startSize=40;container=1;collapsible=0;childLayout=tableLayout;" vertex="1" parent="IHgsMJMbLqcfS5eTaFf3-258">
          <mxGeometry x="200" y="1100" width="1900" height="390" as="geometry" />
        </mxCell>
        <mxCell id="IHgsMJMbLqcfS5eTaFf3-284" value="" style="shape=tableRow;horizontal=0;startSize=0;swimlaneHead=0;swimlaneBody=0;strokeColor=inherit;top=0;left=0;bottom=0;right=0;collapsible=0;dropTarget=0;fillColor=none;points=[[0,0.5],[1,0.5]];portConstraint=eastwest;" vertex="1" parent="IHgsMJMbLqcfS5eTaFf3-283">
          <mxGeometry y="40" width="1900" height="350" as="geometry" />
        </mxCell>
        <mxCell id="IHgsMJMbLqcfS5eTaFf3-285" value="No Contents - NIL (Yet to develop)" style="shape=partialRectangle;html=1;whiteSpace=wrap;connectable=0;strokeColor=inherit;overflow=hidden;fillColor=none;top=0;left=0;bottom=0;right=0;pointerEvents=1;" vertex="1" parent="IHgsMJMbLqcfS5eTaFf3-284">
          <mxGeometry width="380" height="350" as="geometry">
            <mxRectangle width="380" height="350" as="alternateBounds" />
          </mxGeometry>
        </mxCell>
        <mxCell id="IHgsMJMbLqcfS5eTaFf3-286" value="Setup Static Files on Cache:&lt;div&gt;1) Factory&lt;/div&gt;&lt;div&gt;- Factory Information&lt;/div&gt;&lt;div&gt;- Factory Global Standard&lt;/div&gt;&lt;div&gt;&lt;br&gt;&lt;/div&gt;&lt;div&gt;2) Machine&lt;/div&gt;&lt;div&gt;Shows fleet of deployed&amp;nbsp;&lt;span style=&quot;background-color: initial;&quot;&gt;devices / machines&lt;/span&gt;&lt;/div&gt;&lt;div&gt;&lt;br&gt;&lt;/div&gt;&lt;div&gt;3) Product&lt;/div&gt;&lt;div&gt;- Add Product&lt;/div&gt;&lt;div&gt;- Table (of Products of inbuilt ERP WITH&amp;nbsp;&lt;/div&gt;&lt;div&gt;- Name, SKU, Cost)&lt;/div&gt;&lt;div&gt;&lt;br&gt;&lt;/div&gt;&lt;div&gt;4) Customer&lt;/div&gt;&lt;div&gt;- Adding Customer -&amp;gt; to Customer list CRM like Table&lt;/div&gt;&lt;div&gt;&lt;br&gt;&lt;/div&gt;&lt;div&gt;5) Inventory&lt;/div&gt;&lt;div&gt;Shows Available stocks in inventory&lt;/div&gt;&lt;div&gt;(- Name, Image, prod Code, Quantity, Cost)&lt;/div&gt;&lt;div&gt;&lt;br&gt;&lt;/div&gt;&lt;div&gt;&lt;br&gt;&lt;/div&gt;&lt;div&gt;&lt;br&gt;&lt;/div&gt;" style="shape=partialRectangle;html=1;whiteSpace=wrap;connectable=0;strokeColor=inherit;overflow=hidden;fillColor=none;top=0;left=0;bottom=0;right=0;pointerEvents=1;" vertex="1" parent="IHgsMJMbLqcfS5eTaFf3-284">
          <mxGeometry x="380" width="380" height="350" as="geometry">
            <mxRectangle width="380" height="350" as="alternateBounds" />
          </mxGeometry>
        </mxCell>
        <mxCell id="IHgsMJMbLqcfS5eTaFf3-287" value="&lt;div&gt;Plan&lt;/div&gt;&lt;div&gt;&lt;br&gt;&lt;/div&gt;&lt;div&gt;1) Scheduling&amp;nbsp;&lt;/div&gt;&lt;div&gt;Wafting Table, Running Table, Completed Table&lt;/div&gt;&lt;div&gt;&lt;br&gt;&lt;/div&gt;&lt;div&gt;2) Order&amp;nbsp;&lt;/div&gt;&lt;div&gt;Order placing form -&amp;gt; adds to schedule -^&lt;/div&gt;&lt;div&gt;&lt;br&gt;&lt;/div&gt;" style="shape=partialRectangle;html=1;whiteSpace=wrap;connectable=0;strokeColor=inherit;overflow=hidden;fillColor=none;top=0;left=0;bottom=0;right=0;pointerEvents=1;" vertex="1" parent="IHgsMJMbLqcfS5eTaFf3-284">
          <mxGeometry x="760" width="380" height="350" as="geometry">
            <mxRectangle width="380" height="350" as="alternateBounds" />
          </mxGeometry>
        </mxCell>
        <mxCell id="IHgsMJMbLqcfS5eTaFf3-288" value="No Contents - NIL (Yet to develop)" style="shape=partialRectangle;html=1;whiteSpace=wrap;connectable=0;strokeColor=inherit;overflow=hidden;fillColor=none;top=0;left=0;bottom=0;right=0;pointerEvents=1;" vertex="1" parent="IHgsMJMbLqcfS5eTaFf3-284">
          <mxGeometry x="1140" width="380" height="350" as="geometry">
            <mxRectangle width="380" height="350" as="alternateBounds" />
          </mxGeometry>
        </mxCell>
        <mxCell id="IHgsMJMbLqcfS5eTaFf3-289" value="No Contents - NIL (Yet to develop)" style="shape=partialRectangle;html=1;whiteSpace=wrap;connectable=0;strokeColor=inherit;overflow=hidden;fillColor=none;top=0;left=0;bottom=0;right=0;pointerEvents=1;" vertex="1" parent="IHgsMJMbLqcfS5eTaFf3-284">
          <mxGeometry x="1520" width="380" height="350" as="geometry">
            <mxRectangle width="380" height="350" as="alternateBounds" />
          </mxGeometry>
        </mxCell>
        <mxCell id="IHgsMJMbLqcfS5eTaFf3-290" value="" style="group" connectable="0" vertex="1" parent="IHgsMJMbLqcfS5eTaFf3-258">
          <mxGeometry x="210" y="1150.75" width="350" height="329.25" as="geometry" />
        </mxCell>
        <object placeholders="1" c4Name="DWinzo Dashboard UI Container -Organization" c4Type="ContainerScopeBoundary" c4Application="DWinzo Container: Priority Below Top" label="&lt;font style=&quot;font-size: 16px&quot;&gt;&lt;b&gt;&lt;div style=&quot;text-align: left&quot;&gt;%c4Name%&lt;/div&gt;&lt;/b&gt;&lt;/font&gt;&lt;div style=&quot;text-align: left&quot;&gt;[%c4Application%]&lt;/div&gt;" id="IHgsMJMbLqcfS5eTaFf3-291">
          <mxCell style="rounded=1;fontSize=11;whiteSpace=wrap;html=1;dashed=1;arcSize=20;fillColor=none;strokeColor=#666666;fontColor=#333333;labelBackgroundColor=none;align=left;verticalAlign=bottom;labelBorderColor=none;spacingTop=0;spacing=10;dashPattern=8 4;metaEdit=1;rotatable=0;perimeter=rectanglePerimeter;noLabel=0;labelPadding=0;allowArrows=0;connectable=0;expand=0;recursiveResize=0;editable=1;pointerEvents=0;absoluteArcSize=1;points=[[0.25,0,0],[0.5,0,0],[0.75,0,0],[1,0.25,0],[1,0.5,0],[1,0.75,0],[0.75,1,0],[0.5,1,0],[0.25,1,0],[0,0.75,0],[0,0.5,0],[0,0.25,0]];" vertex="1" parent="IHgsMJMbLqcfS5eTaFf3-290">
            <mxGeometry x="10" width="340" height="329.25" as="geometry" />
          </mxCell>
        </object>
        <mxCell id="IHgsMJMbLqcfS5eTaFf3-292" value="" style="group" connectable="0" vertex="1" parent="IHgsMJMbLqcfS5eTaFf3-258">
          <mxGeometry x="585" y="1150.75" width="350" height="329.25" as="geometry" />
        </mxCell>
        <object placeholders="1" c4Name="DWinzo Setup UI Container -Organization" c4Type="ContainerScopeBoundary" c4Application="DWinzo Container: Priority Below Top" label="&lt;font style=&quot;font-size: 16px&quot;&gt;&lt;b&gt;&lt;div style=&quot;text-align: left&quot;&gt;%c4Name%&lt;/div&gt;&lt;/b&gt;&lt;/font&gt;&lt;div style=&quot;text-align: left&quot;&gt;[%c4Application%]&lt;/div&gt;" id="IHgsMJMbLqcfS5eTaFf3-293">
          <mxCell style="rounded=1;fontSize=11;whiteSpace=wrap;html=1;dashed=1;arcSize=20;fillColor=none;strokeColor=#666666;fontColor=#333333;labelBackgroundColor=none;align=left;verticalAlign=bottom;labelBorderColor=none;spacingTop=0;spacing=10;dashPattern=8 4;metaEdit=1;rotatable=0;perimeter=rectanglePerimeter;noLabel=0;labelPadding=0;allowArrows=0;connectable=0;expand=0;recursiveResize=0;editable=1;pointerEvents=0;absoluteArcSize=1;points=[[0.25,0,0],[0.5,0,0],[0.75,0,0],[1,0.25,0],[1,0.5,0],[1,0.75,0],[0.75,1,0],[0.5,1,0],[0.25,1,0],[0,0.75,0],[0,0.5,0],[0,0.25,0]];" vertex="1" parent="IHgsMJMbLqcfS5eTaFf3-292">
            <mxGeometry x="10" width="340" height="329.25" as="geometry" />
          </mxCell>
        </object>
        <mxCell id="IHgsMJMbLqcfS5eTaFf3-294" value="" style="group" connectable="0" vertex="1" parent="IHgsMJMbLqcfS5eTaFf3-258">
          <mxGeometry x="971.5" y="1150.75" width="350" height="329.25" as="geometry" />
        </mxCell>
        <object placeholders="1" c4Name="DWinzo Plan UI Container -Organization" c4Type="ContainerScopeBoundary" c4Application="DWinzo Container: Priority Below Top" label="&lt;font style=&quot;font-size: 16px&quot;&gt;&lt;b&gt;&lt;div style=&quot;text-align: left&quot;&gt;%c4Name%&lt;/div&gt;&lt;/b&gt;&lt;/font&gt;&lt;div style=&quot;text-align: left&quot;&gt;[%c4Application%]&lt;/div&gt;" id="IHgsMJMbLqcfS5eTaFf3-295">
          <mxCell style="rounded=1;fontSize=11;whiteSpace=wrap;html=1;dashed=1;arcSize=20;fillColor=none;strokeColor=#666666;fontColor=#333333;labelBackgroundColor=none;align=left;verticalAlign=bottom;labelBorderColor=none;spacingTop=0;spacing=10;dashPattern=8 4;metaEdit=1;rotatable=0;perimeter=rectanglePerimeter;noLabel=0;labelPadding=0;allowArrows=0;connectable=0;expand=0;recursiveResize=0;editable=1;pointerEvents=0;absoluteArcSize=1;points=[[0.25,0,0],[0.5,0,0],[0.75,0,0],[1,0.25,0],[1,0.5,0],[1,0.75,0],[0.75,1,0],[0.5,1,0],[0.25,1,0],[0,0.75,0],[0,0.5,0],[0,0.25,0]];" vertex="1" parent="IHgsMJMbLqcfS5eTaFf3-294">
            <mxGeometry x="10" width="340" height="329.25" as="geometry" />
          </mxCell>
        </object>
        <mxCell id="IHgsMJMbLqcfS5eTaFf3-296" value="" style="group" connectable="0" vertex="1" parent="IHgsMJMbLqcfS5eTaFf3-258">
          <mxGeometry x="1351.5" y="1150.75" width="350" height="329.25" as="geometry" />
        </mxCell>
        <object placeholders="1" c4Name="DWinzo Track UI Container -Organization" c4Type="ContainerScopeBoundary" c4Application="DWinzo Container: Priority Below Top" label="&lt;font style=&quot;font-size: 16px&quot;&gt;&lt;b&gt;&lt;div style=&quot;text-align: left&quot;&gt;%c4Name%&lt;/div&gt;&lt;/b&gt;&lt;/font&gt;&lt;div style=&quot;text-align: left&quot;&gt;[%c4Application%]&lt;/div&gt;" id="IHgsMJMbLqcfS5eTaFf3-297">
          <mxCell style="rounded=1;fontSize=11;whiteSpace=wrap;html=1;dashed=1;arcSize=20;fillColor=none;strokeColor=#666666;fontColor=#333333;labelBackgroundColor=none;align=left;verticalAlign=bottom;labelBorderColor=none;spacingTop=0;spacing=10;dashPattern=8 4;metaEdit=1;rotatable=0;perimeter=rectanglePerimeter;noLabel=0;labelPadding=0;allowArrows=0;connectable=0;expand=0;recursiveResize=0;editable=1;pointerEvents=0;absoluteArcSize=1;points=[[0.25,0,0],[0.5,0,0],[0.75,0,0],[1,0.25,0],[1,0.5,0],[1,0.75,0],[0.75,1,0],[0.5,1,0],[0.25,1,0],[0,0.75,0],[0,0.5,0],[0,0.25,0]];" vertex="1" parent="IHgsMJMbLqcfS5eTaFf3-296">
            <mxGeometry x="10" width="340" height="329.25" as="geometry" />
          </mxCell>
        </object>
        <mxCell id="IHgsMJMbLqcfS5eTaFf3-298" value="" style="group" connectable="0" vertex="1" parent="IHgsMJMbLqcfS5eTaFf3-258">
          <mxGeometry x="1727.5" y="1149.25" width="350" height="330.75" as="geometry" />
        </mxCell>
        <object placeholders="1" c4Name="DWinzo Settings UI Container -Organization" c4Type="ContainerScopeBoundary" c4Application="DWinzo Container: Priority Below Top" label="&lt;font style=&quot;font-size: 16px&quot;&gt;&lt;b&gt;&lt;div style=&quot;text-align: left&quot;&gt;%c4Name%&lt;/div&gt;&lt;/b&gt;&lt;/font&gt;&lt;div style=&quot;text-align: left&quot;&gt;[%c4Application%]&lt;/div&gt;" id="IHgsMJMbLqcfS5eTaFf3-299">
          <mxCell style="rounded=1;fontSize=11;whiteSpace=wrap;html=1;dashed=1;arcSize=20;fillColor=none;strokeColor=#666666;fontColor=#333333;labelBackgroundColor=none;align=left;verticalAlign=bottom;labelBorderColor=none;spacingTop=0;spacing=10;dashPattern=8 4;metaEdit=1;rotatable=0;perimeter=rectanglePerimeter;noLabel=0;labelPadding=0;allowArrows=0;connectable=0;expand=0;recursiveResize=0;editable=1;pointerEvents=0;absoluteArcSize=1;points=[[0.25,0,0],[0.5,0,0],[0.75,0,0],[1,0.25,0],[1,0.5,0],[1,0.75,0],[0.75,1,0],[0.5,1,0],[0.25,1,0],[0,0.75,0],[0,0.5,0],[0,0.25,0]];" vertex="1" parent="IHgsMJMbLqcfS5eTaFf3-298">
            <mxGeometry x="10" width="340" height="330.75" as="geometry" />
          </mxCell>
        </object>
      </root>
    </mxGraphModel>
  </diagram>
</mxfile>
